<svg xmlns="http://www.w3.org/2000/svg" width="100" height="100" viewBox="-1030 960 284 292.1">
	<path d="m -887.8 994 c -44.8 0 -86.1 33.6 -94.7 70.6 c -1.9 8.3 -4.1 29.8 -4.1 29.8 l -20.5 54.1 c -0.4 1 -0.6 1.9 -0.6 3.1 c 0 4.4 3.5 8 8 8 h 13.2 v 27.6 c 0 21.5 17.4 38.9 38.9 38.9 h 15.5 v 24 h 105.3 v -79.7 c 23 -18.1 37.7 -46.1 37.7 -77.6 c 0 -54.6 -44.2 -98.8 -98.7 -98.8 z m -75 118.6 c -5.9 0 -10.8 -4.9 -10.8 -10.9 c 0 -5.9 4.9 -10.8 10.8 -10.8 c 6.1 0 10.9 4.9 10.9 10.8 c 0.1 6 -4.8 10.9 -10.9 10.9 z m 137.3 33.9 c 0 0 0 0 -49.1 -44.9 l -75.3 -68.9 c 15.4 -28.4 37.2 -26.7 61.5 -26.7 c 46.5 0 84.3 37.7 84.3 84.3 c 0.1 21.6 -8.1 41.2 -21.4 56.2 z" stroke="black" stroke-width="2" fill="rgb(130, 187, 135)"/>
</svg>